HIERARCHY
ROOT Hips
{
	OFFSET 0.000000 0.000000 0.000000
	CHANNELS 6 Xposition Yposition Zposition Zrotation Yrotation Xrotation 
	JOINT LHipJoint
	{
		OFFSET 0.000000 0.000000 0.000000
		CHANNELS 3 Zrotation Yrotation Xrotation
		JOINT LeftUpLeg
		{
			OFFSET 1.363060 -1.794630 0.839290
			CHANNELS 3 Zrotation Yrotation Xrotation
			JOINT LeftLeg
			{
				OFFSET 2.448110 -6.726130 0.000000
				CHANNELS 3 Zrotation Yrotation Xrotation
				JOINT LeftFoot
				{
					OFFSET 2.562200 -7.039590 0.000000
					CHANNELS 3 Zrotation Yrotation Xrotation
					JOINT LeftToeBase
					{
						OFFSET 0.157640 -0.433110 2.322550
						CHANNELS 3 Zrotation Yrotation Xrotation
						End Site
						{
							OFFSET 0.000000 0.000000 0.000000
						}
					}
				}
			}
		}
	}
	JOINT RHipJoint
	{
		OFFSET 0.000000 0.000000 0.000000
		CHANNELS 3 Zrotation Yrotation Xrotation
		JOINT RightUpLeg
		{
			OFFSET -1.305520 -1.794630 0.839290
			CHANNELS 3 Zrotation Yrotation Xrotation
			JOINT RightLeg
			{
				OFFSET -2.542530 -6.985550 0.000000
				CHANNELS 3 Zrotation Yrotation Xrotation
				JOINT RightFoot
				{
					OFFSET -2.568260 -7.056230 0.000000
					CHANNELS 3 Zrotation Yrotation Xrotation
					JOINT RightToeBase
					{
						OFFSET -0.164730 -0.452590 2.363150
						CHANNELS 3 Zrotation Yrotation Xrotation
						End Site
						{
							OFFSET 0.000000 0.000000 0.000000
						}
					}
				}
			}
		}
	}
	JOINT LowerBack
	{
		OFFSET 0.000000 0.000000 0.000000
		CHANNELS 3 Zrotation Yrotation Xrotation
		JOINT Spine
		{
			OFFSET 0.028270 2.035590 -0.193380
			CHANNELS 3 Zrotation Yrotation Xrotation
			JOINT Spine1
			{
				OFFSET 0.056720 2.048850 -0.042750
				CHANNELS 3 Zrotation Yrotation Xrotation
				JOINT Neck
				{
					OFFSET 0.000000 0.000000 0.000000
					CHANNELS 3 Zrotation Yrotation Xrotation
					JOINT Neck1
					{
						OFFSET -0.054170 1.746240 0.172020
						CHANNELS 3 Zrotation Yrotation Xrotation
						JOINT Head
						{
							OFFSET 0.104070 1.761360 -0.123970
							CHANNELS 3 Zrotation Yrotation Xrotation
							End Site
							{
								OFFSET 0.000000 0.000000 0.000000
							}
						}
					}
				}
				JOINT LeftShoulder
				{
					OFFSET 0.000000 0.000000 0.000000
					CHANNELS 3 Zrotation Yrotation Xrotation
					JOINT LeftArm
					{
						OFFSET 3.362410 1.200890 -0.311210
						CHANNELS 3 Zrotation Yrotation Xrotation
						JOINT LeftForeArm
						{
							OFFSET 4.983000 -0.000000 -0.000000
							CHANNELS 3 Zrotation Yrotation Xrotation
							JOINT LeftHand
							{
								OFFSET 3.483560 -0.000000 -0.000000
								CHANNELS 3 Zrotation Yrotation Xrotation
								JOINT LeftFingerBase
								{
									OFFSET 0.000000 0.000000 0.000000
									CHANNELS 3 Zrotation Yrotation Xrotation
									JOINT LeftHandIndex1
									{
										OFFSET 0.715260 -0.000000 -0.000000
										CHANNELS 3 Zrotation Yrotation Xrotation
										End Site
										{
											OFFSET 0.000000 0.000000 0.000000
										}
									}
								}
								JOINT LThumb
								{
									OFFSET 0.000000 0.000000 0.000000
									CHANNELS 3 Zrotation Yrotation Xrotation
									End Site
									{
										OFFSET 0.000000 0.000000 0.000000
									}
								}
							}
						}
					}
				}
				JOINT RightShoulder
				{
					OFFSET 0.000000 0.000000 0.000000
					CHANNELS 3 Zrotation Yrotation Xrotation
					JOINT RightArm
					{
						OFFSET -3.136600 1.374050 -0.404650
						CHANNELS 3 Zrotation Yrotation Xrotation
						JOINT RightForeArm
						{
							OFFSET -5.241900 -0.000000 -0.000000
							CHANNELS 3 Zrotation Yrotation Xrotation
							JOINT RightHand
							{
								OFFSET -3.444170 -0.000000 -0.000000
								CHANNELS 3 Zrotation Yrotation Xrotation
								JOINT RightFingerBase
								{
									OFFSET 0.000000 0.000000 0.000000
									CHANNELS 3 Zrotation Yrotation Xrotation
									JOINT RightHandIndex1
									{
										OFFSET -0.622530 -0.000000 -0.000000
										CHANNELS 3 Zrotation Yrotation Xrotation
										End Site
										{
											OFFSET 0.000000 0.000000 0.000000
										}
									}
								}
								JOINT RThumb
								{
									OFFSET 0.000000 0.000000 0.000000
									CHANNELS 3 Zrotation Yrotation Xrotation
									End Site
									{
										OFFSET 0.000000 0.000000 0.000000
									}
								}
							}
						}
					}
				}
			}
		}
	}
}
MOTION
Frames: 7
Frame Time: 0.008333
9.842704 18.350213 -2.810291 -5.885238 -6.978172 8.798536 -1.177388 -1.482444 -3.401134 -3.398980 -6.740094 -28.223735 -3.105198 5.637102 9.946878 -7.792295 23.845034 9.590106 0.264400 -3.307900 -9.137100 0.459405 -2.574499 3.104810 24.684111 2.569758 10.105947 3.369521 0.743331 2.346735 -0.732872 0.719960 12.810931 -1.047500 6.508400 -18.266900 4.290726 4.540651 -3.565993 0.823980 4.905168 -4.763175 4.175932 3.089559 7.799764 -10.466303 -4.879572 -16.200835 6.130468 -4.382984 7.764873 6.206200 -2.344500 10.153100 -1.030007 -5.974738 -0.646679 -83.068954 16.737521 33.166631 8.755757 -18.299071 -2.201610 -0.071122 1.178939 -0.532727 9.807628 -23.938376 -4.227200 -7.125000 0.000000 0.000000 -11.986100 4.986900 11.150900 0.039924 8.210278 1.388619 69.113383 11.237384 40.886292 -22.154097 28.064844 -8.018386 2.810339 2.220374 -19.314026 -30.805104 -22.560927 14.894900 7.125000 0.000000 0.000000 -5.728600 -57.123500 1.705300 
9.870641 18.321841 -2.611474 -5.852995 -7.072642 8.950584 -1.214757 -1.435814 -3.347740 -3.666173 -6.717918 -28.050924 -3.089450 5.756561 10.313877 -7.600149 23.538435 10.027405 0.215000 -2.985300 -8.237900 0.426837 -2.644367 3.137102 24.392412 2.482183 10.572031 3.356364 0.756876 2.364332 -0.741693 0.667430 13.480493 -1.053900 6.527700 -18.323500 4.273521 4.622991 -4.045280 0.816991 4.969233 -4.752284 4.232414 3.113668 8.113526 -10.508471 -4.940396 -16.545350 6.078461 -4.446184 7.938914 6.172800 -2.385500 10.354600 -1.031031 -5.926526 -0.656933 -83.240272 16.527772 32.549250 8.616985 -18.124255 -2.161486 -0.081077 1.215189 0.127095 10.155269 -24.260366 -4.447000 -7.125000 0.000000 0.000000 -11.773500 4.593500 11.033100 0.052177 8.138936 1.357084 69.142004 10.849298 41.043850 -22.301650 28.212848 -8.000612 2.720106 2.085296 -19.684718 -29.984659 -20.995740 13.485000 7.125000 0.000000 0.000000 -4.894100 -55.096100 1.215400 
9.892381 18.316297 -2.422983 -5.866859 -7.135501 9.015888 -1.259068 -1.375609 -3.322656 -3.782173 -6.835422 -27.852213 -3.012459 5.951116 10.722140 -7.800796 24.283881 10.713429 0.146500 -2.466200 -6.796000 0.396963 -2.714091 3.178936 24.188978 2.354068 11.015892 3.342680 0.766509 2.376570 -0.713624 0.428933 14.190114 -1.155300 6.824300 -19.195900 4.207363 4.611833 -4.281387 0.824079 4.935204 -4.759256 4.269887 3.084958 8.252739 -10.358952 -4.894073 -16.905933 6.057229 -4.401827 8.073419 6.094900 -2.356400 10.542000 -1.000831 -5.915735 -0.679358 -83.424546 16.351860 31.800439 8.470699 -17.934470 -2.122327 -0.063451 1.236978 1.106451 10.274192 -24.346603 -4.518700 -7.125000 0.000000 0.000000 -11.703400 4.473800 10.991200 0.069502 8.111829 1.321797 69.244141 10.597207 41.555804 -22.407457 28.335415 -8.051686 2.744282 2.030742 -20.540294 -30.986418 -20.199957 13.449000 7.125000 0.000000 0.000000 -6.131600 -54.282600 1.402700 
9.914774 18.339777 -2.237210 -5.797494 -7.338393 8.929887 -1.308322 -1.299342 -3.306011 -3.936176 -6.811114 -27.711090 -2.897719 6.193354 11.158792 -8.173387 25.594982 11.674476 0.131200 -2.334900 -6.432200 0.365272 -2.796982 3.242501 23.899289 2.313065 11.531509 3.330170 0.777491 2.387919 -0.681535 0.149108 14.937649 -1.230500 7.035000 -19.819100 4.030041 4.580645 -4.158682 0.825810 4.917350 -4.793725 4.364214 3.071568 7.949234 -10.396449 -4.802393 -16.633301 6.111024 -4.276886 8.095999 6.138100 -2.309000 10.495700 -0.980346 -5.945583 -0.692085 -83.623361 16.624399 31.528663 8.520509 -18.025067 -2.158161 0.003669 1.250017 1.659252 9.700117 -24.729681 -4.301800 -7.125000 0.000000 0.000000 -12.095300 4.152900 11.450600 0.060352 8.152170 1.310839 69.417885 10.231054 41.690244 -22.264782 28.183278 -7.943458 2.729296 1.999328 -20.075213 -30.510943 -20.106630 13.160500 7.125000 0.000000 0.000000 -5.583000 -54.089400 1.250300 
9.945971 18.358474 -2.037850 -5.765405 -7.515184 8.865623 -1.361999 -1.231624 -3.309307 -4.049069 -6.804542 -27.596107 -2.775562 6.420521 11.513157 -8.556239 27.041640 12.737844 0.206100 -2.923200 -8.065000 0.327718 -2.879521 3.308519 23.624255 2.263887 12.055497 3.317787 0.792712 2.400234 -0.693352 0.038100 15.778851 -1.491200 7.714400 -21.849900 3.943459 4.516002 -4.150338 0.845059 4.832609 -4.823606 4.499089 3.022322 7.772158 -10.523341 -4.721068 -16.526091 6.120643 -4.132468 8.205637 6.182800 -2.268500 10.548800 -0.947241 -5.959572 -0.710165 -83.992846 16.795620 31.018617 8.522891 -18.068609 -2.194690 0.087709 1.325913 1.923225 8.887895 -26.182974 -4.117400 -7.125000 0.000000 0.000000 -12.677000 2.748900 12.365200 0.045439 8.164033 1.288321 69.584287 9.782401 41.889941 -22.279029 28.226697 -7.969068 2.686773 2.153929 -19.849934 -29.744615 -21.467858 13.668900 7.125000 0.000000 0.000000 -4.541600 -55.646900 1.188400 
9.973147 18.373475 -1.830227 -5.778792 -7.592804 8.826881 -1.410525 -1.155565 -3.271798 -4.328826 -6.376953 -27.496168 -2.679737 6.594356 11.848550 -8.657831 27.808297 13.852789 0.244300 -3.180500 -8.781600 0.304416 -2.956441 3.348387 23.380835 2.142863 12.487501 3.303583 0.793951 2.405640 -0.643804 -0.411272 16.666555 -1.562800 7.888800 -22.377000 3.966345 4.494419 -4.352506 0.843985 4.785540 -4.829492 4.423847 2.992705 7.913211 -10.342826 -4.707699 -16.911820 6.038939 -4.144088 8.351270 6.070800 -2.270800 10.763000 -0.920422 -5.942295 -0.725131 -84.085955 16.572601 30.741613 8.361678 -17.821593 -2.135141 0.060185 1.356619 1.912855 9.258459 -26.363746 -4.335600 -7.125000 0.000000 0.000000 -12.450600 2.497000 12.191400 0.025297 8.113364 1.238563 69.957458 9.298202 42.124232 -22.548520 28.650207 -8.315378 2.736649 2.531072 -20.640887 -31.449926 -24.693195 16.618700 7.125000 0.000000 0.000000 -6.198000 -59.883200 2.256600 
9.989887 18.380649 -1.630214 -5.502570 -7.594769 8.757989 -1.471751 -1.074419 -3.178999 -5.106527 -5.351957 -27.528420 -2.641491 6.725303 12.214235 -8.333371 27.634810 15.236767 0.207500 -2.932700 -8.091500 0.306350 -3.036123 3.379071 22.867176 1.890185 12.807657 3.279664 0.776224 2.419769 -0.498762 -1.354876 17.550212 -1.352200 7.361400 -20.790500 3.616771 4.492850 -4.508287 0.803193 4.811209 -4.824883 4.383708 2.994938 7.934133 -10.282183 -4.771504 -16.841698 6.127536 -4.260547 8.283576 6.108900 -2.303800 10.710800 -0.965265 -5.925466 -0.705774 -83.887263 16.298545 30.870200 8.260962 -17.585117 -2.044196 -0.093938 1.255148 1.807706 11.016228 -24.050986 -4.819500 -7.125000 0.000000 0.000000 -11.216500 4.658400 10.475300 -0.029206 8.093284 1.233445 70.460664 8.955797 41.942298 -22.618877 28.907427 -8.618822 2.795148 2.942154 -21.174114 -33.957453 -28.416996 20.558100 7.125000 0.000000 0.000000 -9.079500 -64.909900 4.389600 
